<svg width="126" height="40" viewBox="0 0 126 40" fill="none" xmlns="http://www.w3.org/2000/svg">
<path d="M1.155 30V28.6C1.94833 28.5767 2.57833 28.5067 3.045 28.39C3.535 28.2733 3.90833 28.075 4.165 27.795C4.445 27.515 4.63167 27.1183 4.725 26.605C4.81833 26.0917 4.865 25.4267 4.865 24.61V8.44C4.865 7.62333 4.83 6.97 4.76 6.48C4.69 5.96667 4.53833 5.57 4.305 5.29C4.095 4.98667 3.79167 4.78833 3.395 4.695C3.02167 4.57833 2.52 4.49667 1.89 4.45V3.05H13.125C16.6483 3.05 19.355 3.62167 21.245 4.765C23.1583 5.885 24.115 7.495 24.115 9.595C24.115 12.3717 22.12 14.3317 18.13 15.475V15.615C19.4133 15.615 20.5683 15.8017 21.595 16.175C22.645 16.525 23.5317 17.0267 24.255 17.68C24.9783 18.3333 25.5383 19.1033 25.935 19.99C26.3317 20.8767 26.53 21.845 26.53 22.895C26.53 24.085 26.2383 25.1233 25.655 26.01C25.095 26.8967 24.2783 27.6433 23.205 28.25C21.1283 29.4167 18.27 30 14.63 30H1.155ZM14.875 27.865C18.6317 27.865 20.51 26.1733 20.51 22.79C20.51 20.7133 19.8333 19.1967 18.48 18.24C17.78 17.75 16.87 17.4 15.75 17.19C14.6533 16.98 13.3 16.875 11.69 16.875H10.01V23.875C10.01 25.3217 10.3833 26.3483 11.13 26.955C11.8767 27.5617 13.125 27.865 14.875 27.865ZM12.075 14.775C13.125 14.775 14.035 14.6817 14.805 14.495C15.575 14.285 16.2283 13.9933 16.765 13.62C17.885 12.85 18.445 11.6483 18.445 10.015C18.445 8.31166 18.025 7.08666 17.185 6.34C16.345 5.57 14.9917 5.185 13.125 5.185H10.64C10.22 5.185 10.01 5.38333 10.01 5.78V14.775H12.075ZM46.7906 26.745C44.6673 29.1483 42.019 30.35 38.8456 30.35C37.399 30.35 36.0806 30.1283 34.8906 29.685C33.724 29.2183 32.7206 28.5767 31.8806 27.76C31.0406 26.92 30.3873 25.9283 29.9206 24.785C29.454 23.6417 29.2206 22.37 29.2206 20.97C29.2206 19.5233 29.4656 18.205 29.9556 17.015C30.4456 15.8017 31.134 14.7633 32.0206 13.9C32.9306 13.0133 33.9923 12.325 35.2056 11.835C36.4423 11.345 37.7956 11.1 39.2656 11.1C41.739 11.1 43.664 11.765 45.0406 13.095C46.4173 14.425 47.1056 16.2917 47.1056 18.695C47.1056 19.0683 47.0473 19.3017 46.9306 19.395C46.814 19.465 46.4873 19.5 45.9506 19.5H34.6806C34.5873 19.71 34.5406 20.095 34.5406 20.655C34.5406 22.9417 35.0306 24.75 36.0106 26.08C37.014 27.41 38.3673 28.075 40.0706 28.075C41.0506 28.075 42.019 27.8533 42.9756 27.41C43.9556 26.9667 44.9006 26.3367 45.8106 25.52L46.7906 26.745ZM40.0006 17.54C40.934 17.54 41.529 17.4933 41.7856 17.4C42.0656 17.2833 42.2056 17.0267 42.2056 16.63C42.2056 15.6033 41.914 14.7633 41.3306 14.11C40.7473 13.4567 40.0123 13.13 39.1256 13.13C38.1223 13.13 37.224 13.55 36.4306 14.39C35.6606 15.2067 35.159 16.2567 34.9256 17.54H40.0006ZM58.8749 30.35H56.2499L51.4549 15.965C51.0816 14.845 50.6499 14.0633 50.1599 13.62C49.6699 13.1533 49.0166 12.8967 48.1999 12.85V11.45H58.2099V12.85C57.3699 12.8733 56.7866 13.0017 56.4599 13.235C56.1333 13.445 55.9699 13.8183 55.9699 14.355C55.9699 14.6117 56.0049 14.8917 56.0749 15.195C56.1449 15.4983 56.2383 15.8483 56.3549 16.245L58.5599 24.435H58.6999L63.5999 11.45H66.4699L70.1449 24.435H70.3199L73.1199 17.19C73.3533 16.6067 73.5166 16.105 73.6099 15.685C73.7033 15.2417 73.7499 14.8567 73.7499 14.53C73.7499 13.9233 73.5516 13.4917 73.1549 13.235C72.7583 12.9783 72.2216 12.85 71.5449 12.85V11.45H79.0699V12.85C78.6499 12.85 78.2999 12.8967 78.0199 12.99C77.7399 13.0833 77.4599 13.305 77.1799 13.655C76.8999 14.005 76.5966 14.5417 76.2699 15.265C75.9433 15.9883 75.5349 16.98 75.0449 18.24L70.2149 30.35H67.4499L63.7399 17.925H63.5999L58.8749 30.35ZM79.9668 13.375V11.8C81.3668 11.4033 82.5335 10.8083 83.4668 10.015C84.4235 9.19833 85.1351 8.265 85.6018 7.215H87.3868V11.45H91.4118V13.375H87.3868V24.12C87.3868 25.5667 87.5385 26.5933 87.8418 27.2C88.1685 27.8067 88.7051 28.11 89.4518 28.11C90.3618 28.11 91.0501 27.69 91.5168 26.85L92.2518 27.865C91.5985 29.5217 90.0585 30.35 87.6318 30.35C86.0218 30.35 84.7618 29.9767 83.8518 29.23C82.9651 28.4833 82.5218 27.4333 82.5218 26.08V13.375H79.9668ZM102.501 35.495C102.244 36.0083 101.918 36.4867 101.521 36.93C101.148 37.3733 100.716 37.7467 100.226 38.05C99.7594 38.3767 99.2694 38.6333 98.7561 38.82C98.2427 39.0067 97.7294 39.1 97.2161 39.1C96.4461 39.1 95.8277 38.9133 95.3611 38.54C94.8944 38.1667 94.6611 37.665 94.6611 37.035C94.6611 36.4517 94.8594 35.9967 95.2561 35.67C95.6761 35.3433 96.3411 35.145 97.2511 35.075C99.3277 34.9117 100.669 34.2583 101.276 33.115L102.221 31.295L96.0261 15.965C95.7461 15.2883 95.5011 14.7517 95.2911 14.355C95.1044 13.9583 94.8944 13.655 94.6611 13.445C94.4277 13.2117 94.1594 13.06 93.8561 12.99C93.5527 12.92 93.1794 12.8733 92.7361 12.85V11.45H103.341V12.85C102.431 12.85 101.789 12.9433 101.416 13.13C101.066 13.2933 100.891 13.6083 100.891 14.075C100.891 14.2617 100.914 14.4833 100.961 14.74C101.031 14.9733 101.113 15.2183 101.206 15.475L104.776 25.695H104.916L107.926 18.87C108.229 18.1467 108.486 17.5517 108.696 17.085C108.906 16.595 109.058 16.1867 109.151 15.86C109.268 15.51 109.349 15.23 109.396 15.02C109.443 14.81 109.466 14.6 109.466 14.39C109.466 13.7833 109.291 13.375 108.941 13.165C108.614 12.955 107.938 12.85 106.911 12.85V11.45H115.346V12.85C114.879 12.85 114.483 12.92 114.156 13.06C113.829 13.1767 113.491 13.4333 113.141 13.83C112.814 14.2267 112.441 14.8217 112.021 15.615C111.624 16.385 111.123 17.4117 110.516 18.695L102.501 35.495Z" fill="#341401"/>
<rect x="116" y="20" width="10" height="10" rx="5" fill="#F49329"/>
</svg>
